<svg width="18" height="11" viewBox="0 0 18 11" fill="none" xmlns="http://www.w3.org/2000/svg">
<path d="M0.283413 1.28417C0.282461 1.44867 0.313992 1.61175 0.376198 1.76405C0.438404 1.91635 0.530062 2.05487 0.645914 2.17167L8.14591 9.67167C8.38012 9.90448 8.69693 10.0352 9.02716 10.0352C9.3574 10.0352 9.67421 9.90448 9.90841 9.67167L17.4084 2.17167C17.6132 1.93254 17.7202 1.62494 17.7081 1.31035C17.6959 0.995753 17.5655 0.69733 17.3429 0.474712C17.1202 0.252093 16.8218 0.121677 16.5072 0.109526C16.1926 0.0973749 15.885 0.204383 15.6459 0.409166L9.03341 7.02167L2.42091 0.409166C2.24682 0.233639 2.0246 0.113675 1.78233 0.0644434C1.54006 0.0152119 1.28864 0.038924 1.05985 0.132582C0.831057 0.226238 0.635176 0.385633 0.496971 0.590613C0.358769 0.795592 0.284449 1.03695 0.283413 1.28417Z" fill="black"/>
</svg>
