<svg width="18" height="11" viewBox="0 0 18 11" fill="none" xmlns="http://www.w3.org/2000/svg">
<path d="M0.283413 8.79005C0.282461 8.62554 0.313992 8.46247 0.376198 8.31017C0.438404 8.15787 0.530062 8.01935 0.645914 7.90255L8.14591 0.402553C8.38012 0.16974 8.69693 0.0390626 9.02716 0.0390626C9.3574 0.0390626 9.67421 0.16974 9.90841 0.402553L17.4084 7.90255C17.6132 8.14168 17.7202 8.44928 17.7081 8.76387C17.6959 9.07847 17.5655 9.37689 17.3429 9.59951C17.1202 9.82213 16.8218 9.95254 16.5072 9.96469C16.1926 9.97684 15.885 9.86984 15.6459 9.66505L9.03341 3.05255L2.42091 9.66505C2.24682 9.84058 2.0246 9.96054 1.78233 10.0098C1.54006 10.059 1.28864 10.0353 1.05985 9.94164C0.831057 9.84798 0.635176 9.68859 0.496971 9.48361C0.358769 9.27863 0.284449 9.03727 0.283413 8.79005Z" fill="black"/>
</svg>
